solid OpenSCAD_Model
  facet normal -1 0 0
    outer loop
      vertex 10 48 3
      vertex 10 84 7
      vertex 10 84 3
    endloop
  endfacet
  facet normal -1 -0 0
    outer loop
      vertex 10 84 7
      vertex 10 48 3
      vertex 10 48 7
    endloop
  endfacet
  facet normal 0 0 1
    outer loop
      vertex 41 84 7
      vertex 40 83 7
      vertex 41 48 7
    endloop
  endfacet
  facet normal 0 0 1
    outer loop
      vertex 41 84 7
      vertex 11 83 7
      vertex 40 83 7
    endloop
  endfacet
  facet normal 0 0 1
    outer loop
      vertex 11 83 7
      vertex 10 84 7
      vertex 11 49 7
    endloop
  endfacet
  facet normal -0 0 1
    outer loop
      vertex 10 84 7
      vertex 11 83 7
      vertex 41 84 7
    endloop
  endfacet
  facet normal -0 0 1
    outer loop
      vertex 40 49 7
      vertex 41 48 7
      vertex 40 83 7
    endloop
  endfacet
  facet normal -0 0 1
    outer loop
      vertex 11 49 7
      vertex 41 48 7
      vertex 40 49 7
    endloop
  endfacet
  facet normal 0 0 1
    outer loop
      vertex 11 49 7
      vertex 10 48 7
      vertex 41 48 7
    endloop
  endfacet
  facet normal 0 0 1
    outer loop
      vertex 10 48 7
      vertex 11 49 7
      vertex 10 84 7
    endloop
  endfacet
  facet normal 1 -0 0
    outer loop
      vertex 41 48 7
      vertex 41 84 3
      vertex 41 84 7
    endloop
  endfacet
  facet normal 1 0 0
    outer loop
      vertex 41 84 3
      vertex 41 48 7
      vertex 41 48 3
    endloop
  endfacet
  facet normal 0 1 -0
    outer loop
      vertex 41 84 3
      vertex 10 84 7
      vertex 41 84 7
    endloop
  endfacet
  facet normal 0 1 0
    outer loop
      vertex 10 84 7
      vertex 41 84 3
      vertex 10 84 3
    endloop
  endfacet
  facet normal 0 0 -1
    outer loop
      vertex 2 82 0
      vertex 20 75 0
      vertex 4 24.75 0
    endloop
  endfacet
  facet normal 0 0 -1
    outer loop
      vertex 0 0 0
      vertex 4 24.75 0
      vertex 2 8.125 0
    endloop
  endfacet
  facet normal 0 0 -1
    outer loop
      vertex 20 75 0
      vertex 2 82 0
      vertex 8.125 82 0
    endloop
  endfacet
  facet normal 0 0 -1
    outer loop
      vertex 82.5 9.5 0
      vertex 94.75 39.5 0
      vertex 94.75 9.5 0
    endloop
  endfacet
  facet normal -0 0 -1
    outer loop
      vertex 94.75 39.5 0
      vertex 82.5 9.5 0
      vertex 82.5 39.5 0
    endloop
  endfacet
  facet normal 0 0 -1
    outer loop
      vertex 8.125 8.125 0
      vertex 11.5 12.5 0
      vertex 8.125 2 0
    endloop
  endfacet
  facet normal 0 0 -1
    outer loop
      vertex 8.125 8.125 0
      vertex 4 12.5 0
      vertex 11.5 12.5 0
    endloop
  endfacet
  facet normal -0 0 -1
    outer loop
      vertex 4 12.5 0
      vertex 2 8.125 0
      vertex 4 24.75 0
    endloop
  endfacet
  facet normal 0 0 -1
    outer loop
      vertex 2 8.125 0
      vertex 4 12.5 0
      vertex 8.125 8.125 0
    endloop
  endfacet
  facet normal 0 0 -1
    outer loop
      vertex 167 8.125 0
      vertex 173.125 82 0
      vertex 173.125 8.125 0
    endloop
  endfacet
  facet normal -0 0 -1
    outer loop
      vertex 173.125 82 0
      vertex 167 8.125 0
      vertex 167 82 0
    endloop
  endfacet
  facet normal 0 0 -1
    outer loop
      vertex 173.125 8.125 0
      vertex 175 0 0
      vertex 173.125 2 0
    endloop
  endfacet
  facet normal 0 0 -1
    outer loop
      vertex 175 0 0
      vertex 167 2 0
      vertex 173.125 2 0
    endloop
  endfacet
  facet normal 0 0 -1
    outer loop
      vertex 150.75 3 0
      vertex 167 8.125 0
      vertex 167 2 0
    endloop
  endfacet
  facet normal 0 -0 -1
    outer loop
      vertex 152.75 80 0
      vertex 167 8.125 0
      vertex 150.75 9.5 0
    endloop
  endfacet
  facet normal 0 0 -1
    outer loop
      vertex 152.75 86.5 0
      vertex 167 82 0
      vertex 152.75 80 0
    endloop
  endfacet
  facet normal -0 0 -1
    outer loop
      vertex 167 8.125 0
      vertex 150.75 3 0
      vertex 150.75 9.5 0
    endloop
  endfacet
  facet normal 0 0 -1
    outer loop
      vertex 175 0 0
      vertex 150.75 3 0
      vertex 167 2 0
    endloop
  endfacet
  facet normal 0 0 -1
    outer loop
      vertex 175 0 0
      vertex 138.5 3 0
      vertex 150.75 3 0
    endloop
  endfacet
  facet normal 0 0 -1
    outer loop
      vertex 138.5 3 0
      vertex 119.75 3 0
      vertex 138.5 9.5 0
    endloop
  endfacet
  facet normal 0 0 -1
    outer loop
      vertex 175 0 0
      vertex 119.75 3 0
      vertex 138.5 3 0
    endloop
  endfacet
  facet normal 0 0 -1
    outer loop
      vertex 175 0 0
      vertex 107.5 3 0
      vertex 119.75 3 0
    endloop
  endfacet
  facet normal 0 0 -1
    outer loop
      vertex 107.5 3 0
      vertex 94.75 3 0
      vertex 107.5 9.5 0
    endloop
  endfacet
  facet normal 0 0 -1
    outer loop
      vertex 175 0 0
      vertex 94.75 3 0
      vertex 107.5 3 0
    endloop
  endfacet
  facet normal 0 0 -1
    outer loop
      vertex 175 0 0
      vertex 82.5 3 0
      vertex 94.75 3 0
    endloop
  endfacet
  facet normal 0 0 -1
    outer loop
      vertex 63.75 24 0
      vertex 82.5 9.5 0
      vertex 82.5 3 0
    endloop
  endfacet
  facet normal 0 0 -1
    outer loop
      vertex 82.5 9.5 0
      vertex 63.75 24 0
      vertex 82.5 39.5 0
    endloop
  endfacet
  facet normal 0 0 -1
    outer loop
      vertex 63.75 30.5 0
      vertex 82.5 39.5 0
      vertex 63.75 24 0
    endloop
  endfacet
  facet normal 0 -0 -1
    outer loop
      vertex 68 64 0
      vertex 82.5 46 0
      vertex 63.75 30.5 0
    endloop
  endfacet
  facet normal 0 0 -1
    outer loop
      vertex 82.5 46 0
      vertex 68 64 0
      vertex 75.5 64 0
    endloop
  endfacet
  facet normal -0 0 -1
    outer loop
      vertex 82.5 39.5 0
      vertex 63.75 30.5 0
      vertex 82.5 46 0
    endloop
  endfacet
  facet normal 0 0 -1
    outer loop
      vertex 40 12.5 0
      vertex 63.75 24 0
      vertex 82.5 3 0
    endloop
  endfacet
  facet normal 0 0 -1
    outer loop
      vertex 40 24.75 0
      vertex 51.5 24 0
      vertex 40 12.5 0
    endloop
  endfacet
  facet normal -0 0 -1
    outer loop
      vertex 63.75 24 0
      vertex 40 12.5 0
      vertex 51.5 24 0
    endloop
  endfacet
  facet normal 0 0 -1
    outer loop
      vertex 8.125 2 0
      vertex 40 12.5 0
      vertex 82.5 3 0
    endloop
  endfacet
  facet normal 0 0 -1
    outer loop
      vertex 11.5 24.75 0
      vertex 32.5 24.75 0
      vertex 32.5 12.5 0
    endloop
  endfacet
  facet normal 0 -0 -1
    outer loop
      vertex 20 75 0
      vertex 32.5 24.75 0
      vertex 11.5 24.75 0
    endloop
  endfacet
  facet normal 0 0 -1
    outer loop
      vertex 32.5 24.75 0
      vertex 20 75 0
      vertex 32.25 75 0
    endloop
  endfacet
  facet normal 0 0 -1
    outer loop
      vertex 11.5 24.75 0
      vertex 32.5 12.5 0
      vertex 11.5 12.5 0
    endloop
  endfacet
  facet normal -0 0 -1
    outer loop
      vertex 40 12.5 0
      vertex 8.125 2 0
      vertex 32.5 12.5 0
    endloop
  endfacet
  facet normal -0 0 -1
    outer loop
      vertex 32.5 12.5 0
      vertex 8.125 2 0
      vertex 11.5 12.5 0
    endloop
  endfacet
  facet normal 0 0 -1
    outer loop
      vertex 0 0 0
      vertex 82.5 3 0
      vertex 175 0 0
    endloop
  endfacet
  facet normal 0 0 -1
    outer loop
      vertex 82.5 3 0
      vertex 0 0 0
      vertex 8.125 2 0
    endloop
  endfacet
  facet normal 0 0 -1
    outer loop
      vertex 0 0 0
      vertex 2 8.125 0
      vertex 2 2 0
    endloop
  endfacet
  facet normal 0 0 -1
    outer loop
      vertex 0 90 0
      vertex 4 24.75 0
      vertex 0 0 0
    endloop
  endfacet
  facet normal 0 0 -1
    outer loop
      vertex 4 24.75 0
      vertex 0 90 0
      vertex 2 82 0
    endloop
  endfacet
  facet normal -0 0 -1
    outer loop
      vertex 8.125 2 0
      vertex 0 0 0
      vertex 2 2 0
    endloop
  endfacet
  facet normal 0 0 -1
    outer loop
      vertex 175 0 0
      vertex 173.125 8.125 0
      vertex 175 90 0
    endloop
  endfacet
  facet normal 0 0 -1
    outer loop
      vertex 173.125 82 0
      vertex 175 90 0
      vertex 173.125 8.125 0
    endloop
  endfacet
  facet normal 0 0 -1
    outer loop
      vertex 173.125 88.125 0
      vertex 175 90 0
      vertex 173.125 82 0
    endloop
  endfacet
  facet normal 0 0 -1
    outer loop
      vertex 167 88.125 0
      vertex 175 90 0
      vertex 173.125 88.125 0
    endloop
  endfacet
  facet normal 0 0 -1
    outer loop
      vertex 167 82 0
      vertex 152.75 86.5 0
      vertex 167 88.125 0
    endloop
  endfacet
  facet normal 0 0 -1
    outer loop
      vertex 152.75 86.5 0
      vertex 175 90 0
      vertex 167 88.125 0
    endloop
  endfacet
  facet normal 0 0 -1
    outer loop
      vertex 140.5 86.5 0
      vertex 175 90 0
      vertex 152.75 86.5 0
    endloop
  endfacet
  facet normal 0 0 -1
    outer loop
      vertex 94.75 46 0
      vertex 138.5 9.5 0
      vertex 119.75 9.5 0
    endloop
  endfacet
  facet normal 0 0 -1
    outer loop
      vertex 138.5 9.5 0
      vertex 94.75 46 0
      vertex 140.5 80 0
    endloop
  endfacet
  facet normal 0 0 -1
    outer loop
      vertex 94.75 39.5 0
      vertex 119.75 9.5 0
      vertex 107.5 9.5 0
    endloop
  endfacet
  facet normal 0 0 -1
    outer loop
      vertex 94.75 9.5 0
      vertex 107.5 9.5 0
      vertex 94.75 3 0
    endloop
  endfacet
  facet normal 0 0 -1
    outer loop
      vertex 94.75 39.5 0
      vertex 107.5 9.5 0
      vertex 94.75 9.5 0
    endloop
  endfacet
  facet normal 0 0 -1
    outer loop
      vertex 94.75 46 0
      vertex 119.75 9.5 0
      vertex 94.75 39.5 0
    endloop
  endfacet
  facet normal 0 0 -1
    outer loop
      vertex 75.5 76.25 0
      vertex 140.5 80 0
      vertex 94.75 46 0
    endloop
  endfacet
  facet normal 0 0 -1
    outer loop
      vertex 75.5 64 0
      vertex 94.75 46 0
      vertex 82.5 46 0
    endloop
  endfacet
  facet normal 0 0 -1
    outer loop
      vertex 75.5 76.25 0
      vertex 94.75 46 0
      vertex 75.5 64 0
    endloop
  endfacet
  facet normal -0 0 -1
    outer loop
      vertex 140.5 80 0
      vertex 75.5 76.25 0
      vertex 140.5 86.5 0
    endloop
  endfacet
  facet normal 0 0 -1
    outer loop
      vertex 32.25 81.5 0
      vertex 75.5 76.25 0
      vertex 68 76.25 0
    endloop
  endfacet
  facet normal 0 0 -1
    outer loop
      vertex 51.5 30.5 0
      vertex 68 64 0
      vertex 63.75 30.5 0
    endloop
  endfacet
  facet normal 0 0 -1
    outer loop
      vertex 32.25 75 0
      vertex 68 64 0
      vertex 51.5 30.5 0
    endloop
  endfacet
  facet normal 0 0 -1
    outer loop
      vertex 51.5 24 0
      vertex 40 24.75 0
      vertex 51.5 30.5 0
    endloop
  endfacet
  facet normal 0 0 -1
    outer loop
      vertex 32.5 24.75 0
      vertex 51.5 30.5 0
      vertex 40 24.75 0
    endloop
  endfacet
  facet normal -0 0 -1
    outer loop
      vertex 51.5 30.5 0
      vertex 32.5 24.75 0
      vertex 32.25 75 0
    endloop
  endfacet
  facet normal 0 0 -1
    outer loop
      vertex 68 64 0
      vertex 32.25 75 0
      vertex 68 76.25 0
    endloop
  endfacet
  facet normal 0 0 -1
    outer loop
      vertex 32.25 81.5 0
      vertex 68 76.25 0
      vertex 32.25 75 0
    endloop
  endfacet
  facet normal 0 0 -1
    outer loop
      vertex 75.5 76.25 0
      vertex 32.25 81.5 0
      vertex 140.5 86.5 0
    endloop
  endfacet
  facet normal 0 0 -1
    outer loop
      vertex 8.125 88.125 0
      vertex 140.5 86.5 0
      vertex 32.25 81.5 0
    endloop
  endfacet
  facet normal 0 0 -1
    outer loop
      vertex 8.125 88.125 0
      vertex 32.25 81.5 0
      vertex 20 81.5 0
    endloop
  endfacet
  facet normal 0 0 -1
    outer loop
      vertex 4 24.75 0
      vertex 20 75 0
      vertex 11.5 24.75 0
    endloop
  endfacet
  facet normal 0 0 -1
    outer loop
      vertex 20 75 0
      vertex 8.125 82 0
      vertex 20 81.5 0
    endloop
  endfacet
  facet normal 0 0 -1
    outer loop
      vertex 8.125 88.125 0
      vertex 20 81.5 0
      vertex 8.125 82 0
    endloop
  endfacet
  facet normal 0 0 -1
    outer loop
      vertex 0 90 0
      vertex 140.5 86.5 0
      vertex 8.125 88.125 0
    endloop
  endfacet
  facet normal 0 0 -1
    outer loop
      vertex 0 90 0
      vertex 8.125 88.125 0
      vertex 2 88.125 0
    endloop
  endfacet
  facet normal 0 0 -1
    outer loop
      vertex 140.5 86.5 0
      vertex 0 90 0
      vertex 175 90 0
    endloop
  endfacet
  facet normal 0 0 -1
    outer loop
      vertex 2 82 0
      vertex 0 90 0
      vertex 2 88.125 0
    endloop
  endfacet
  facet normal 0 0 -1
    outer loop
      vertex 167 8.125 0
      vertex 152.75 80 0
      vertex 167 82 0
    endloop
  endfacet
  facet normal 0 0 -1
    outer loop
      vertex 150.75 9.5 0
      vertex 140.5 80 0
      vertex 152.75 80 0
    endloop
  endfacet
  facet normal 0 0 -1
    outer loop
      vertex 119.75 9.5 0
      vertex 138.5 9.5 0
      vertex 119.75 3 0
    endloop
  endfacet
  facet normal 0 0 -1
    outer loop
      vertex 138.5 9.5 0
      vertex 140.5 80 0
      vertex 150.75 9.5 0
    endloop
  endfacet
  facet normal 0 -1 0
    outer loop
      vertex 10 48 3
      vertex 41 48 7
      vertex 10 48 7
    endloop
  endfacet
  facet normal 0 -1 -0
    outer loop
      vertex 41 48 7
      vertex 10 48 3
      vertex 41 48 3
    endloop
  endfacet
  facet normal 1 -0 0
    outer loop
      vertex 11 49 7
      vertex 11 83 3
      vertex 11 83 7
    endloop
  endfacet
  facet normal 1 0 0
    outer loop
      vertex 11 83 3
      vertex 11 49 7
      vertex 11 49 3
    endloop
  endfacet
  facet normal -1 0 0
    outer loop
      vertex 40 49 3
      vertex 40 83 7
      vertex 40 83 3
    endloop
  endfacet
  facet normal -1 -0 0
    outer loop
      vertex 40 83 7
      vertex 40 49 3
      vertex 40 49 7
    endloop
  endfacet
  facet normal 0 -1 0
    outer loop
      vertex 11 83 3
      vertex 40 83 7
      vertex 11 83 7
    endloop
  endfacet
  facet normal 0 -1 -0
    outer loop
      vertex 40 83 7
      vertex 11 83 3
      vertex 40 83 3
    endloop
  endfacet
  facet normal -0 0 1
    outer loop
      vertex 133 52.75 3
      vertex 157 11 3
      vertex 157 52.75 3
    endloop
  endfacet
  facet normal 0 0 1
    outer loop
      vertex 157 11 3
      vertex 133 52.75 3
      vertex 133 11 3
    endloop
  endfacet
  facet normal -0 0 1
    outer loop
      vertex 79 36.5 3
      vertex 123 11 3
      vertex 123 36.5 3
    endloop
  endfacet
  facet normal 0 0 1
    outer loop
      vertex 123 11 3
      vertex 79 36.5 3
      vertex 79 11 3
    endloop
  endfacet
  facet normal 0 0 1
    outer loop
      vertex 63.75 24 3
      vertex 69 31 3
      vertex 63.75 30.5 3
    endloop
  endfacet
  facet normal 0 0 1
    outer loop
      vertex 69 31 3
      vertex 51.5 30.5 3
      vertex 63.75 30.5 3
    endloop
  endfacet
  facet normal 0 0 1
    outer loop
      vertex 51.5 30.5 3
      vertex 45 31 3
      vertex 51.5 24 3
    endloop
  endfacet
  facet normal -0 0 1
    outer loop
      vertex 45 31 3
      vertex 51.5 30.5 3
      vertex 69 31 3
    endloop
  endfacet
  facet normal 0 0 1
    outer loop
      vertex 69 31 3
      vertex 63.75 24 3
      vertex 69 11 3
    endloop
  endfacet
  facet normal -0 0 1
    outer loop
      vertex 51.5 24 3
      vertex 69 11 3
      vertex 63.75 24 3
    endloop
  endfacet
  facet normal 0 0 1
    outer loop
      vertex 51.5 24 3
      vertex 45 11 3
      vertex 69 11 3
    endloop
  endfacet
  facet normal 0 0 1
    outer loop
      vertex 45 11 3
      vertex 51.5 24 3
      vertex 45 31 3
    endloop
  endfacet
  facet normal 0 0 1
    outer loop
      vertex 40.5 27.75 3
      vertex 40 24.75 3
      vertex 40.5 11 3
    endloop
  endfacet
  facet normal 0 0 1
    outer loop
      vertex 40.5 27.75 3
      vertex 32.5 24.75 3
      vertex 40 24.75 3
    endloop
  endfacet
  facet normal 0 0 1
    outer loop
      vertex 32.5 24.75 3
      vertex 11.5 24.75 3
      vertex 32.5 12.5 3
    endloop
  endfacet
  facet normal -0 0 1
    outer loop
      vertex 4 27.75 3
      vertex 32.5 24.75 3
      vertex 40.5 27.75 3
    endloop
  endfacet
  facet normal 0 0 1
    outer loop
      vertex 32.5 24.75 3
      vertex 4 27.75 3
      vertex 11.5 24.75 3
    endloop
  endfacet
  facet normal 0 0 1
    outer loop
      vertex 11.5 24.75 3
      vertex 4 27.75 3
      vertex 4 24.75 3
    endloop
  endfacet
  facet normal -0 0 1
    outer loop
      vertex 40 12.5 3
      vertex 40.5 11 3
      vertex 40 24.75 3
    endloop
  endfacet
  facet normal -0 0 1
    outer loop
      vertex 32.5 12.5 3
      vertex 40.5 11 3
      vertex 40 12.5 3
    endloop
  endfacet
  facet normal 0 0 1
    outer loop
      vertex 11.5 12.5 3
      vertex 32.5 12.5 3
      vertex 11.5 24.75 3
    endloop
  endfacet
  facet normal 0 0 1
    outer loop
      vertex 4 11 3
      vertex 32.5 12.5 3
      vertex 11.5 12.5 3
    endloop
  endfacet
  facet normal 0 0 1
    outer loop
      vertex 4 11 3
      vertex 11.5 12.5 3
      vertex 4 12.5 3
    endloop
  endfacet
  facet normal 0 0 1
    outer loop
      vertex 32.5 12.5 3
      vertex 4 11 3
      vertex 40.5 11 3
    endloop
  endfacet
  facet normal -0 0 1
    outer loop
      vertex 134 79.5 3
      vertex 158 59 3
      vertex 158 79.5 3
    endloop
  endfacet
  facet normal 0 0 1
    outer loop
      vertex 158 59 3
      vertex 134 79.5 3
      vertex 134 59 3
    endloop
  endfacet
  facet normal -0 0 1
    outer loop
      vertex 79 84.2 3
      vertex 108.5 55.5 3
      vertex 108.5 84.2 3
    endloop
  endfacet
  facet normal 0 0 1
    outer loop
      vertex 108.5 55.5 3
      vertex 79 84.2 3
      vertex 79 55.5 3
    endloop
  endfacet
  facet normal 0 0 1
    outer loop
      vertex 32.25 75 3
      vertex 40 83 3
      vertex 32.25 81.5 3
    endloop
  endfacet
  facet normal 0 0 1
    outer loop
      vertex 40 83 3
      vertex 20 81.5 3
      vertex 32.25 81.5 3
    endloop
  endfacet
  facet normal 0 0 1
    outer loop
      vertex 20 81.5 3
      vertex 11 83 3
      vertex 20 75 3
    endloop
  endfacet
  facet normal -0 0 1
    outer loop
      vertex 11 83 3
      vertex 20 81.5 3
      vertex 40 83 3
    endloop
  endfacet
  facet normal 0 0 1
    outer loop
      vertex 40 83 3
      vertex 32.25 75 3
      vertex 40 49 3
    endloop
  endfacet
  facet normal -0 0 1
    outer loop
      vertex 20 75 3
      vertex 40 49 3
      vertex 32.25 75 3
    endloop
  endfacet
  facet normal 0 0 1
    outer loop
      vertex 11 49 3
      vertex 20 75 3
      vertex 11 83 3
    endloop
  endfacet
  facet normal 0 0 1
    outer loop
      vertex 20 75 3
      vertex 11 49 3
      vertex 40 49 3
    endloop
  endfacet
  facet normal -0 0 1
    outer loop
      vertex 3 10 3
      vertex 8.125 8.125 3
      vertex 41.5 10 3
    endloop
  endfacet
  facet normal 0 0 1
    outer loop
      vertex 3 10 3
      vertex 2 8.125 3
      vertex 8.125 8.125 3
    endloop
  endfacet
  facet normal 0 0 1
    outer loop
      vertex 3 28.75 3
      vertex 2 8.125 3
      vertex 3 10 3
    endloop
  endfacet
  facet normal 0 0 1
    outer loop
      vertex 78 54.5 3
      vertex 68 64 3
      vertex 70 32 3
    endloop
  endfacet
  facet normal -0 0 1
    outer loop
      vertex 41 48 3
      vertex 70 32 3
      vertex 68 64 3
    endloop
  endfacet
  facet normal 0 0 1
    outer loop
      vertex 44 32 3
      vertex 41 48 3
      vertex 41.5 28.75 3
    endloop
  endfacet
  facet normal -0 0 1
    outer loop
      vertex 10 48 3
      vertex 41.5 28.75 3
      vertex 41 48 3
    endloop
  endfacet
  facet normal 0 0 1
    outer loop
      vertex 10 84 3
      vertex 8.125 82 3
      vertex 10 48 3
    endloop
  endfacet
  facet normal 0 0 1
    outer loop
      vertex 10 48 3
      vertex 3 28.75 3
      vertex 41.5 28.75 3
    endloop
  endfacet
  facet normal -0 0 1
    outer loop
      vertex 2 82 3
      vertex 10 48 3
      vertex 8.125 82 3
    endloop
  endfacet
  facet normal 0 0 1
    outer loop
      vertex 2 8.125 3
      vertex 3 28.75 3
      vertex 2 82 3
    endloop
  endfacet
  facet normal 0 0 1
    outer loop
      vertex 10 48 3
      vertex 2 82 3
      vertex 3 28.75 3
    endloop
  endfacet
  facet normal 0 0 1
    outer loop
      vertex 124 10 3
      vertex 107.5 9.5 3
      vertex 119.75 9.5 3
    endloop
  endfacet
  facet normal 0 0 1
    outer loop
      vertex 107.5 9.5 3
      vertex 94.75 9.5 3
      vertex 107.5 3 3
    endloop
  endfacet
  facet normal 0 0 1
    outer loop
      vertex 124 10 3
      vertex 94.75 9.5 3
      vertex 107.5 9.5 3
    endloop
  endfacet
  facet normal -0 0 1
    outer loop
      vertex 78 10 3
      vertex 94.75 9.5 3
      vertex 124 10 3
    endloop
  endfacet
  facet normal 0 0 1
    outer loop
      vertex 82.5 9.5 3
      vertex 78 10 3
      vertex 82.5 3 3
    endloop
  endfacet
  facet normal 0 0 1
    outer loop
      vertex 94.75 9.5 3
      vertex 78 10 3
      vertex 82.5 9.5 3
    endloop
  endfacet
  facet normal 0 0 1
    outer loop
      vertex 132 53.75 3
      vertex 109.5 54.5 3
      vertex 124 37.5 3
    endloop
  endfacet
  facet normal 0 0 1
    outer loop
      vertex 94.75 39.5 3
      vertex 109.5 54.5 3
      vertex 94.75 46 3
    endloop
  endfacet
  facet normal 0 0 1
    outer loop
      vertex 109.5 54.5 3
      vertex 94.75 39.5 3
      vertex 124 37.5 3
    endloop
  endfacet
  facet normal 0 0 1
    outer loop
      vertex 78 37.5 3
      vertex 94.75 39.5 3
      vertex 82.5 39.5 3
    endloop
  endfacet
  facet normal 0 0 1
    outer loop
      vertex 94.75 39.5 3
      vertex 78 37.5 3
      vertex 124 37.5 3
    endloop
  endfacet
  facet normal 0 0 1
    outer loop
      vertex 82.5 46 3
      vertex 78 37.5 3
      vertex 82.5 39.5 3
    endloop
  endfacet
  facet normal -0 0 1
    outer loop
      vertex 78 54.5 3
      vertex 94.75 46 3
      vertex 109.5 54.5 3
    endloop
  endfacet
  facet normal 0 0 1
    outer loop
      vertex 78 37.5 3
      vertex 82.5 46 3
      vertex 78 54.5 3
    endloop
  endfacet
  facet normal 0 0 1
    outer loop
      vertex 94.75 46 3
      vertex 78 54.5 3
      vertex 82.5 46 3
    endloop
  endfacet
  facet normal 0 0 1
    outer loop
      vertex 158 10 3
      vertex 138.5 9.5 3
      vertex 150.75 9.5 3
    endloop
  endfacet
  facet normal 0 0 1
    outer loop
      vertex 138.5 9.5 3
      vertex 132 10 3
      vertex 138.5 3 3
    endloop
  endfacet
  facet normal -0 0 1
    outer loop
      vertex 132 10 3
      vertex 138.5 9.5 3
      vertex 158 10 3
    endloop
  endfacet
  facet normal -0 0 1
    outer loop
      vertex 133 58 3
      vertex 158 53.75 3
      vertex 159 58 3
    endloop
  endfacet
  facet normal 0 0 1
    outer loop
      vertex 158 53.75 3
      vertex 133 58 3
      vertex 132 53.75 3
    endloop
  endfacet
  facet normal 0 0 1
    outer loop
      vertex 159 58 3
      vertex 173.125 82 3
      vertex 167 82 3
    endloop
  endfacet
  facet normal 0 0 1
    outer loop
      vertex 173.125 82 3
      vertex 159 58 3
      vertex 173.125 8.125 3
    endloop
  endfacet
  facet normal 0 0 1
    outer loop
      vertex 173.125 82 3
      vertex 175 90 3
      vertex 173.125 88.125 3
    endloop
  endfacet
  facet normal 0 0 1
    outer loop
      vertex 175 90 3
      vertex 167 88.125 3
      vertex 173.125 88.125 3
    endloop
  endfacet
  facet normal 0 0 1
    outer loop
      vertex 159 80.5 3
      vertex 167 82 3
      vertex 167 88.125 3
    endloop
  endfacet
  facet normal -0 0 1
    outer loop
      vertex 158 53.75 3
      vertex 173.125 8.125 3
      vertex 159 58 3
    endloop
  endfacet
  facet normal 0 0 1
    outer loop
      vertex 167 82 3
      vertex 159 80.5 3
      vertex 159 58 3
    endloop
  endfacet
  facet normal 0 0 1
    outer loop
      vertex 167 88.125 3
      vertex 152.75 86.5 3
      vertex 159 80.5 3
    endloop
  endfacet
  facet normal 0 0 1
    outer loop
      vertex 175 90 3
      vertex 152.75 86.5 3
      vertex 167 88.125 3
    endloop
  endfacet
  facet normal 0 0 1
    outer loop
      vertex 175 90 3
      vertex 140.5 86.5 3
      vertex 152.75 86.5 3
    endloop
  endfacet
  facet normal 0 0 1
    outer loop
      vertex 140.5 86.5 3
      vertex 133 80.5 3
      vertex 140.5 80.5 3
    endloop
  endfacet
  facet normal 0 0 1
    outer loop
      vertex 109.5 54.5 3
      vertex 133 80.5 3
      vertex 109.5 85.2 3
    endloop
  endfacet
  facet normal 0 0 1
    outer loop
      vertex 132 53.75 3
      vertex 124 37.5 3
      vertex 132 10 3
    endloop
  endfacet
  facet normal 0 0 1
    outer loop
      vertex 133 80.5 3
      vertex 109.5 54.5 3
      vertex 133 58 3
    endloop
  endfacet
  facet normal 0 0 1
    outer loop
      vertex 133 58 3
      vertex 109.5 54.5 3
      vertex 132 53.75 3
    endloop
  endfacet
  facet normal 0 0 1
    outer loop
      vertex 140.5 86.5 3
      vertex 109.5 85.2 3
      vertex 133 80.5 3
    endloop
  endfacet
  facet normal 0 0 1
    outer loop
      vertex 175 90 3
      vertex 109.5 85.2 3
      vertex 140.5 86.5 3
    endloop
  endfacet
  facet normal 0 0 1
    outer loop
      vertex 175 90 3
      vertex 78 85.2 3
      vertex 109.5 85.2 3
    endloop
  endfacet
  facet normal -0 0 1
    outer loop
      vertex 75.5 64 3
      vertex 78 54.5 3
      vertex 78 85.2 3
    endloop
  endfacet
  facet normal -0 0 1
    outer loop
      vertex 68 64 3
      vertex 78 54.5 3
      vertex 75.5 64 3
    endloop
  endfacet
  facet normal 0 0 1
    outer loop
      vertex 75.5 64 3
      vertex 78 85.2 3
      vertex 75.5 76.25 3
    endloop
  endfacet
  facet normal 0 0 1
    outer loop
      vertex 78 85.2 3
      vertex 68 76.25 3
      vertex 75.5 76.25 3
    endloop
  endfacet
  facet normal 0 0 1
    outer loop
      vertex 41 84 3
      vertex 68 64 3
      vertex 68 76.25 3
    endloop
  endfacet
  facet normal 0 0 1
    outer loop
      vertex 44 32 3
      vertex 41.5 28.75 3
      vertex 44 10 3
    endloop
  endfacet
  facet normal 0 0 1
    outer loop
      vertex 41 48 3
      vertex 68 64 3
      vertex 41 84 3
    endloop
  endfacet
  facet normal 0 0 1
    outer loop
      vertex 70 32 3
      vertex 41 48 3
      vertex 44 32 3
    endloop
  endfacet
  facet normal 0 0 1
    outer loop
      vertex 78 85.2 3
      vertex 41 84 3
      vertex 68 76.25 3
    endloop
  endfacet
  facet normal -0 0 1
    outer loop
      vertex 0 90 3
      vertex 78 85.2 3
      vertex 175 90 3
    endloop
  endfacet
  facet normal 0 0 1
    outer loop
      vertex 78 85.2 3
      vertex 0 90 3
      vertex 41 84 3
    endloop
  endfacet
  facet normal 0 0 1
    outer loop
      vertex 8.125 82 3
      vertex 10 84 3
      vertex 8.125 88.125 3
    endloop
  endfacet
  facet normal 0 0 1
    outer loop
      vertex 41 84 3
      vertex 8.125 88.125 3
      vertex 10 84 3
    endloop
  endfacet
  facet normal 0 0 1
    outer loop
      vertex 41 84 3
      vertex 0 90 3
      vertex 8.125 88.125 3
    endloop
  endfacet
  facet normal 0 0 1
    outer loop
      vertex 0 90 3
      vertex 2 82 3
      vertex 2 88.125 3
    endloop
  endfacet
  facet normal 0 0 1
    outer loop
      vertex 2 82 3
      vertex 0 90 3
      vertex 2 8.125 3
    endloop
  endfacet
  facet normal 0 0 1
    outer loop
      vertex 0 0 3
      vertex 2 8.125 3
      vertex 0 90 3
    endloop
  endfacet
  facet normal 0 0 1
    outer loop
      vertex 8.125 88.125 3
      vertex 0 90 3
      vertex 2 88.125 3
    endloop
  endfacet
  facet normal 0 0 1
    outer loop
      vertex 175 90 3
      vertex 173.125 82 3
      vertex 175 0 3
    endloop
  endfacet
  facet normal -0 0 1
    outer loop
      vertex 173.125 8.125 3
      vertex 175 0 3
      vertex 173.125 82 3
    endloop
  endfacet
  facet normal -0 0 1
    outer loop
      vertex 173.125 2 3
      vertex 175 0 3
      vertex 173.125 8.125 3
    endloop
  endfacet
  facet normal -0 0 1
    outer loop
      vertex 167 2 3
      vertex 175 0 3
      vertex 173.125 2 3
    endloop
  endfacet
  facet normal 0 0 1
    outer loop
      vertex 173.125 8.125 3
      vertex 158 53.75 3
      vertex 167 8.125 3
    endloop
  endfacet
  facet normal -0 0 1
    outer loop
      vertex 158 10 3
      vertex 167 8.125 3
      vertex 158 53.75 3
    endloop
  endfacet
  facet normal 0 0 1
    outer loop
      vertex 167 8.125 3
      vertex 158 10 3
      vertex 167 2 3
    endloop
  endfacet
  facet normal 0 0 1
    outer loop
      vertex 150.75 3 3
      vertex 158 10 3
      vertex 150.75 9.5 3
    endloop
  endfacet
  facet normal 0 0 1
    outer loop
      vertex 158 10 3
      vertex 150.75 3 3
      vertex 167 2 3
    endloop
  endfacet
  facet normal 0 0 1
    outer loop
      vertex 150.75 3 3
      vertex 175 0 3
      vertex 167 2 3
    endloop
  endfacet
  facet normal -0 0 1
    outer loop
      vertex 138.5 3 3
      vertex 175 0 3
      vertex 150.75 3 3
    endloop
  endfacet
  facet normal 0 0 1
    outer loop
      vertex 124 10 3
      vertex 132 10 3
      vertex 124 37.5 3
    endloop
  endfacet
  facet normal 0 0 1
    outer loop
      vertex 119.75 3 3
      vertex 132 10 3
      vertex 124 10 3
    endloop
  endfacet
  facet normal 0 0 1
    outer loop
      vertex 119.75 3 3
      vertex 124 10 3
      vertex 119.75 9.5 3
    endloop
  endfacet
  facet normal 0 0 1
    outer loop
      vertex 132 10 3
      vertex 119.75 3 3
      vertex 138.5 3 3
    endloop
  endfacet
  facet normal -0 0 1
    outer loop
      vertex 119.75 3 3
      vertex 175 0 3
      vertex 138.5 3 3
    endloop
  endfacet
  facet normal -0 0 1
    outer loop
      vertex 107.5 3 3
      vertex 175 0 3
      vertex 119.75 3 3
    endloop
  endfacet
  facet normal 0 0 1
    outer loop
      vertex 94.75 3 3
      vertex 107.5 3 3
      vertex 94.75 9.5 3
    endloop
  endfacet
  facet normal -0 0 1
    outer loop
      vertex 94.75 3 3
      vertex 175 0 3
      vertex 107.5 3 3
    endloop
  endfacet
  facet normal -0 0 1
    outer loop
      vertex 82.5 3 3
      vertex 175 0 3
      vertex 94.75 3 3
    endloop
  endfacet
  facet normal 0 0 1
    outer loop
      vertex 78 54.5 3
      vertex 70 32 3
      vertex 78 37.5 3
    endloop
  endfacet
  facet normal 0 0 1
    outer loop
      vertex 78 37.5 3
      vertex 70 32 3
      vertex 78 10 3
    endloop
  endfacet
  facet normal 0 0 1
    outer loop
      vertex 70 10 3
      vertex 78 10 3
      vertex 70 32 3
    endloop
  endfacet
  facet normal -0 0 1
    outer loop
      vertex 70 10 3
      vertex 82.5 3 3
      vertex 78 10 3
    endloop
  endfacet
  facet normal -0 0 1
    outer loop
      vertex 44 10 3
      vertex 82.5 3 3
      vertex 70 10 3
    endloop
  endfacet
  facet normal 0 0 1
    outer loop
      vertex 41.5 10 3
      vertex 44 10 3
      vertex 41.5 28.75 3
    endloop
  endfacet
  facet normal 0 0 1
    outer loop
      vertex 8.125 2 3
      vertex 44 10 3
      vertex 41.5 10 3
    endloop
  endfacet
  facet normal 0 0 1
    outer loop
      vertex 8.125 2 3
      vertex 41.5 10 3
      vertex 8.125 8.125 3
    endloop
  endfacet
  facet normal 0 0 1
    outer loop
      vertex 44 10 3
      vertex 8.125 2 3
      vertex 82.5 3 3
    endloop
  endfacet
  facet normal 0 0 1
    outer loop
      vertex 0 0 3
      vertex 82.5 3 3
      vertex 8.125 2 3
    endloop
  endfacet
  facet normal 0 0 1
    outer loop
      vertex 0 0 3
      vertex 8.125 2 3
      vertex 2 2 3
    endloop
  endfacet
  facet normal 0 0 1
    outer loop
      vertex 82.5 3 3
      vertex 0 0 3
      vertex 175 0 3
    endloop
  endfacet
  facet normal 0 0 1
    outer loop
      vertex 2 8.125 3
      vertex 0 0 3
      vertex 2 2 3
    endloop
  endfacet
  facet normal 0 0 1
    outer loop
      vertex 159 80.5 3
      vertex 152.75 86.5 3
      vertex 152.75 80.5 3
    endloop
  endfacet
  facet normal 0 1 -0
    outer loop
      vertex 40 49 3
      vertex 11 49 7
      vertex 40 49 7
    endloop
  endfacet
  facet normal 0 1 0
    outer loop
      vertex 11 49 7
      vertex 40 49 3
      vertex 11 49 3
    endloop
  endfacet
  facet normal -1 0 0
    outer loop
      vertex 78 54.5 3
      vertex 78 85.2 7
      vertex 78 85.2 3
    endloop
  endfacet
  facet normal -1 -0 0
    outer loop
      vertex 78 85.2 7
      vertex 78 54.5 3
      vertex 78 54.5 7
    endloop
  endfacet
  facet normal 0 0 1
    outer loop
      vertex 109.5 85.2 7
      vertex 108.5 84.2 7
      vertex 109.5 54.5 7
    endloop
  endfacet
  facet normal 0 0 1
    outer loop
      vertex 109.5 85.2 7
      vertex 79 84.2 7
      vertex 108.5 84.2 7
    endloop
  endfacet
  facet normal 0 0 1
    outer loop
      vertex 79 84.2 7
      vertex 78 85.2 7
      vertex 79 55.5 7
    endloop
  endfacet
  facet normal -0 0 1
    outer loop
      vertex 78 85.2 7
      vertex 79 84.2 7
      vertex 109.5 85.2 7
    endloop
  endfacet
  facet normal -0 0 1
    outer loop
      vertex 108.5 55.5 7
      vertex 109.5 54.5 7
      vertex 108.5 84.2 7
    endloop
  endfacet
  facet normal -0 0 1
    outer loop
      vertex 79 55.5 7
      vertex 109.5 54.5 7
      vertex 108.5 55.5 7
    endloop
  endfacet
  facet normal 0 0 1
    outer loop
      vertex 79 55.5 7
      vertex 78 54.5 7
      vertex 109.5 54.5 7
    endloop
  endfacet
  facet normal 0 0 1
    outer loop
      vertex 78 54.5 7
      vertex 79 55.5 7
      vertex 78 85.2 7
    endloop
  endfacet
  facet normal 1 -0 0
    outer loop
      vertex 109.5 54.5 7
      vertex 109.5 85.2 3
      vertex 109.5 85.2 7
    endloop
  endfacet
  facet normal 1 0 0
    outer loop
      vertex 109.5 85.2 3
      vertex 109.5 54.5 7
      vertex 109.5 54.5 3
    endloop
  endfacet
  facet normal 0 1 -0
    outer loop
      vertex 109.5 85.2 3
      vertex 78 85.2 7
      vertex 109.5 85.2 7
    endloop
  endfacet
  facet normal 0 1 0
    outer loop
      vertex 78 85.2 7
      vertex 109.5 85.2 3
      vertex 78 85.2 3
    endloop
  endfacet
  facet normal 0 -1 0
    outer loop
      vertex 78 54.5 3
      vertex 109.5 54.5 7
      vertex 78 54.5 7
    endloop
  endfacet
  facet normal 0 -1 -0
    outer loop
      vertex 109.5 54.5 7
      vertex 78 54.5 3
      vertex 109.5 54.5 3
    endloop
  endfacet
  facet normal 1 -0 0
    outer loop
      vertex 79 55.5 7
      vertex 79 84.2 3
      vertex 79 84.2 7
    endloop
  endfacet
  facet normal 1 0 0
    outer loop
      vertex 79 84.2 3
      vertex 79 55.5 7
      vertex 79 55.5 3
    endloop
  endfacet
  facet normal -1 0 0
    outer loop
      vertex 108.5 55.5 3
      vertex 108.5 84.2 7
      vertex 108.5 84.2 3
    endloop
  endfacet
  facet normal -1 -0 0
    outer loop
      vertex 108.5 84.2 7
      vertex 108.5 55.5 3
      vertex 108.5 55.5 7
    endloop
  endfacet
  facet normal 0 -1 0
    outer loop
      vertex 79 84.2 3
      vertex 108.5 84.2 7
      vertex 79 84.2 7
    endloop
  endfacet
  facet normal 0 -1 -0
    outer loop
      vertex 108.5 84.2 7
      vertex 79 84.2 3
      vertex 108.5 84.2 3
    endloop
  endfacet
  facet normal 0 1 -0
    outer loop
      vertex 108.5 55.5 3
      vertex 79 55.5 7
      vertex 108.5 55.5 7
    endloop
  endfacet
  facet normal 0 1 0
    outer loop
      vertex 79 55.5 7
      vertex 108.5 55.5 3
      vertex 79 55.5 3
    endloop
  endfacet
  facet normal -1 0 0
    outer loop
      vertex 133 58 3
      vertex 133 80.5 7
      vertex 133 80.5 3
    endloop
  endfacet
  facet normal -1 -0 0
    outer loop
      vertex 133 80.5 7
      vertex 133 58 3
      vertex 133 58 7
    endloop
  endfacet
  facet normal 0 0 1
    outer loop
      vertex 140.5 80.5 7
      vertex 134 79.5 7
      vertex 140.5 80 7
    endloop
  endfacet
  facet normal 0 0 1
    outer loop
      vertex 134 79.5 7
      vertex 133 80.5 7
      vertex 134 59 7
    endloop
  endfacet
  facet normal -0 0 1
    outer loop
      vertex 133 80.5 7
      vertex 134 79.5 7
      vertex 140.5 80.5 7
    endloop
  endfacet
  facet normal 0 0 1
    outer loop
      vertex 159 80.5 7
      vertex 158 79.5 7
      vertex 159 58 7
    endloop
  endfacet
  facet normal -0 0 1
    outer loop
      vertex 152.75 80.5 7
      vertex 158 79.5 7
      vertex 159 80.5 7
    endloop
  endfacet
  facet normal -0 0 1
    outer loop
      vertex 152.75 80 7
      vertex 158 79.5 7
      vertex 152.75 80.5 7
    endloop
  endfacet
  facet normal -0 0 1
    outer loop
      vertex 140.5 80 7
      vertex 158 79.5 7
      vertex 152.75 80 7
    endloop
  endfacet
  facet normal 0 0 1
    outer loop
      vertex 158 79.5 7
      vertex 140.5 80 7
      vertex 134 79.5 7
    endloop
  endfacet
  facet normal -0 0 1
    outer loop
      vertex 158 59 7
      vertex 159 58 7
      vertex 158 79.5 7
    endloop
  endfacet
  facet normal -0 0 1
    outer loop
      vertex 134 59 7
      vertex 159 58 7
      vertex 158 59 7
    endloop
  endfacet
  facet normal 0 0 1
    outer loop
      vertex 134 59 7
      vertex 133 58 7
      vertex 159 58 7
    endloop
  endfacet
  facet normal 0 0 1
    outer loop
      vertex 133 58 7
      vertex 134 59 7
      vertex 133 80.5 7
    endloop
  endfacet
  facet normal 1 -0 0
    outer loop
      vertex 159 58 7
      vertex 159 80.5 3
      vertex 159 80.5 7
    endloop
  endfacet
  facet normal 1 0 0
    outer loop
      vertex 159 80.5 3
      vertex 159 58 7
      vertex 159 58 3
    endloop
  endfacet
  facet normal 0 1 -0
    outer loop
      vertex 159 80.5 3
      vertex 152.75 80.5 7
      vertex 159 80.5 7
    endloop
  endfacet
  facet normal 0 1 0
    outer loop
      vertex 152.75 80.5 7
      vertex 159 80.5 3
      vertex 152.75 80.5 3
    endloop
  endfacet
  facet normal 0 1 -0
    outer loop
      vertex 140.5 80.5 3
      vertex 133 80.5 7
      vertex 140.5 80.5 7
    endloop
  endfacet
  facet normal 0 1 0
    outer loop
      vertex 133 80.5 7
      vertex 140.5 80.5 3
      vertex 133 80.5 3
    endloop
  endfacet
  facet normal 0 -1 0
    outer loop
      vertex 133 58 3
      vertex 159 58 7
      vertex 133 58 7
    endloop
  endfacet
  facet normal 0 -1 -0
    outer loop
      vertex 159 58 7
      vertex 133 58 3
      vertex 159 58 3
    endloop
  endfacet
  facet normal 1 -0 0
    outer loop
      vertex 134 59 7
      vertex 134 79.5 3
      vertex 134 79.5 7
    endloop
  endfacet
  facet normal 1 0 0
    outer loop
      vertex 134 79.5 3
      vertex 134 59 7
      vertex 134 59 3
    endloop
  endfacet
  facet normal -1 0 0
    outer loop
      vertex 158 59 3
      vertex 158 79.5 7
      vertex 158 79.5 3
    endloop
  endfacet
  facet normal -1 -0 0
    outer loop
      vertex 158 79.5 7
      vertex 158 59 3
      vertex 158 59 7
    endloop
  endfacet
  facet normal 0 -1 0
    outer loop
      vertex 134 79.5 3
      vertex 158 79.5 7
      vertex 134 79.5 7
    endloop
  endfacet
  facet normal 0 -1 -0
    outer loop
      vertex 158 79.5 7
      vertex 134 79.5 3
      vertex 158 79.5 3
    endloop
  endfacet
  facet normal 0 1 -0
    outer loop
      vertex 158 59 3
      vertex 134 59 7
      vertex 158 59 7
    endloop
  endfacet
  facet normal 0 1 0
    outer loop
      vertex 134 59 7
      vertex 158 59 3
      vertex 134 59 3
    endloop
  endfacet
  facet normal -1 0 0
    outer loop
      vertex 3 10 3
      vertex 3 28.75 7
      vertex 3 28.75 3
    endloop
  endfacet
  facet normal -1 -0 0
    outer loop
      vertex 3 28.75 7
      vertex 3 10 3
      vertex 3 10 7
    endloop
  endfacet
  facet normal 0 0 1
    outer loop
      vertex 41.5 28.75 7
      vertex 40.5 27.75 7
      vertex 41.5 10 7
    endloop
  endfacet
  facet normal 0 0 1
    outer loop
      vertex 41.5 28.75 7
      vertex 4 27.75 7
      vertex 40.5 27.75 7
    endloop
  endfacet
  facet normal 0 0 1
    outer loop
      vertex 4 27.75 7
      vertex 3 28.75 7
      vertex 4 11 7
    endloop
  endfacet
  facet normal -0 0 1
    outer loop
      vertex 3 28.75 7
      vertex 4 27.75 7
      vertex 41.5 28.75 7
    endloop
  endfacet
  facet normal -0 0 1
    outer loop
      vertex 40.5 11 7
      vertex 41.5 10 7
      vertex 40.5 27.75 7
    endloop
  endfacet
  facet normal -0 0 1
    outer loop
      vertex 4 11 7
      vertex 41.5 10 7
      vertex 40.5 11 7
    endloop
  endfacet
  facet normal 0 0 1
    outer loop
      vertex 4 11 7
      vertex 3 10 7
      vertex 41.5 10 7
    endloop
  endfacet
  facet normal 0 0 1
    outer loop
      vertex 3 10 7
      vertex 4 11 7
      vertex 3 28.75 7
    endloop
  endfacet
  facet normal 1 -0 0
    outer loop
      vertex 41.5 10 7
      vertex 41.5 28.75 3
      vertex 41.5 28.75 7
    endloop
  endfacet
  facet normal 1 0 0
    outer loop
      vertex 41.5 28.75 3
      vertex 41.5 10 7
      vertex 41.5 10 3
    endloop
  endfacet
  facet normal 0 -1 0
    outer loop
      vertex 3 10 3
      vertex 41.5 10 7
      vertex 3 10 7
    endloop
  endfacet
  facet normal 0 -1 -0
    outer loop
      vertex 41.5 10 7
      vertex 3 10 3
      vertex 41.5 10 3
    endloop
  endfacet
  facet normal 0 1 -0
    outer loop
      vertex 41.5 28.75 3
      vertex 3 28.75 7
      vertex 41.5 28.75 7
    endloop
  endfacet
  facet normal 0 1 0
    outer loop
      vertex 3 28.75 7
      vertex 41.5 28.75 3
      vertex 3 28.75 3
    endloop
  endfacet
  facet normal 1 0 0
    outer loop
      vertex 4 27.75 7
      vertex 4 24.75 3
      vertex 4 27.75 3
    endloop
  endfacet
  facet normal 1 0 0
    outer loop
      vertex 4 24.75 3
      vertex 4 12.5 3
      vertex 4 24.75 0
    endloop
  endfacet
  facet normal 1 -0 0
    outer loop
      vertex 4 11 7
      vertex 4 24.75 3
      vertex 4 27.75 7
    endloop
  endfacet
  facet normal 1 0 0
    outer loop
      vertex 4 24.75 3
      vertex 4 11 7
      vertex 4 12.5 3
    endloop
  endfacet
  facet normal 1 0 0
    outer loop
      vertex 4 12.5 3
      vertex 4 11 7
      vertex 4 11 3
    endloop
  endfacet
  facet normal 1 0 0
    outer loop
      vertex 4 24.75 0
      vertex 4 12.5 3
      vertex 4 12.5 0
    endloop
  endfacet
  facet normal -1 0 0
    outer loop
      vertex 40.5 11 3
      vertex 40.5 27.75 7
      vertex 40.5 27.75 3
    endloop
  endfacet
  facet normal -1 -0 0
    outer loop
      vertex 40.5 27.75 7
      vertex 40.5 11 3
      vertex 40.5 11 7
    endloop
  endfacet
  facet normal 0 1 -0
    outer loop
      vertex 40.5 11 3
      vertex 4 11 7
      vertex 40.5 11 7
    endloop
  endfacet
  facet normal 0 1 0
    outer loop
      vertex 4 11 7
      vertex 40.5 11 3
      vertex 4 11 3
    endloop
  endfacet
  facet normal 0 -1 0
    outer loop
      vertex 4 27.75 3
      vertex 40.5 27.75 7
      vertex 4 27.75 7
    endloop
  endfacet
  facet normal 0 -1 -0
    outer loop
      vertex 40.5 27.75 7
      vertex 4 27.75 3
      vertex 40.5 27.75 3
    endloop
  endfacet
  facet normal -1 0 0
    outer loop
      vertex 44 10 3
      vertex 44 32 7
      vertex 44 32 3
    endloop
  endfacet
  facet normal -1 -0 0
    outer loop
      vertex 44 32 7
      vertex 44 10 3
      vertex 44 10 7
    endloop
  endfacet
  facet normal 0 0 1
    outer loop
      vertex 70 32 7
      vertex 69 31 7
      vertex 70 10 7
    endloop
  endfacet
  facet normal 0 0 1
    outer loop
      vertex 70 32 7
      vertex 45 31 7
      vertex 69 31 7
    endloop
  endfacet
  facet normal 0 0 1
    outer loop
      vertex 45 31 7
      vertex 44 32 7
      vertex 45 11 7
    endloop
  endfacet
  facet normal -0 0 1
    outer loop
      vertex 44 32 7
      vertex 45 31 7
      vertex 70 32 7
    endloop
  endfacet
  facet normal -0 0 1
    outer loop
      vertex 69 11 7
      vertex 70 10 7
      vertex 69 31 7
    endloop
  endfacet
  facet normal -0 0 1
    outer loop
      vertex 45 11 7
      vertex 70 10 7
      vertex 69 11 7
    endloop
  endfacet
  facet normal 0 0 1
    outer loop
      vertex 45 11 7
      vertex 44 10 7
      vertex 70 10 7
    endloop
  endfacet
  facet normal 0 0 1
    outer loop
      vertex 44 10 7
      vertex 45 11 7
      vertex 44 32 7
    endloop
  endfacet
  facet normal 1 -0 0
    outer loop
      vertex 70 10 7
      vertex 70 32 3
      vertex 70 32 7
    endloop
  endfacet
  facet normal 1 0 0
    outer loop
      vertex 70 32 3
      vertex 70 10 7
      vertex 70 10 3
    endloop
  endfacet
  facet normal 0 -1 0
    outer loop
      vertex 44 10 3
      vertex 70 10 7
      vertex 44 10 7
    endloop
  endfacet
  facet normal 0 -1 -0
    outer loop
      vertex 70 10 7
      vertex 44 10 3
      vertex 70 10 3
    endloop
  endfacet
  facet normal 0 1 -0
    outer loop
      vertex 70 32 3
      vertex 44 32 7
      vertex 70 32 7
    endloop
  endfacet
  facet normal 0 1 0
    outer loop
      vertex 44 32 7
      vertex 70 32 3
      vertex 44 32 3
    endloop
  endfacet
  facet normal 1 -0 0
    outer loop
      vertex 45 11 7
      vertex 45 31 3
      vertex 45 31 7
    endloop
  endfacet
  facet normal 1 0 0
    outer loop
      vertex 45 31 3
      vertex 45 11 7
      vertex 45 11 3
    endloop
  endfacet
  facet normal -1 0 0
    outer loop
      vertex 69 11 3
      vertex 69 31 7
      vertex 69 31 3
    endloop
  endfacet
  facet normal -1 -0 0
    outer loop
      vertex 69 31 7
      vertex 69 11 3
      vertex 69 11 7
    endloop
  endfacet
  facet normal 0 -1 0
    outer loop
      vertex 45 31 3
      vertex 69 31 7
      vertex 45 31 7
    endloop
  endfacet
  facet normal 0 -1 -0
    outer loop
      vertex 69 31 7
      vertex 45 31 3
      vertex 69 31 3
    endloop
  endfacet
  facet normal 0 1 -0
    outer loop
      vertex 69 11 3
      vertex 45 11 7
      vertex 69 11 7
    endloop
  endfacet
  facet normal 0 1 0
    outer loop
      vertex 45 11 7
      vertex 69 11 3
      vertex 45 11 3
    endloop
  endfacet
  facet normal -1 0 0
    outer loop
      vertex 78 10 3
      vertex 78 37.5 7
      vertex 78 37.5 3
    endloop
  endfacet
  facet normal -1 -0 0
    outer loop
      vertex 78 37.5 7
      vertex 78 10 3
      vertex 78 10 7
    endloop
  endfacet
  facet normal 0 0 1
    outer loop
      vertex 124 37.5 7
      vertex 123 36.5 7
      vertex 124 10 7
    endloop
  endfacet
  facet normal 0 0 1
    outer loop
      vertex 124 37.5 7
      vertex 79 36.5 7
      vertex 123 36.5 7
    endloop
  endfacet
  facet normal 0 0 1
    outer loop
      vertex 79 36.5 7
      vertex 78 37.5 7
      vertex 79 11 7
    endloop
  endfacet
  facet normal -0 0 1
    outer loop
      vertex 78 37.5 7
      vertex 79 36.5 7
      vertex 124 37.5 7
    endloop
  endfacet
  facet normal -0 0 1
    outer loop
      vertex 123 11 7
      vertex 124 10 7
      vertex 123 36.5 7
    endloop
  endfacet
  facet normal -0 0 1
    outer loop
      vertex 79 11 7
      vertex 124 10 7
      vertex 123 11 7
    endloop
  endfacet
  facet normal 0 0 1
    outer loop
      vertex 79 11 7
      vertex 78 10 7
      vertex 124 10 7
    endloop
  endfacet
  facet normal 0 0 1
    outer loop
      vertex 78 10 7
      vertex 79 11 7
      vertex 78 37.5 7
    endloop
  endfacet
  facet normal 1 -0 0
    outer loop
      vertex 124 10 7
      vertex 124 37.5 3
      vertex 124 37.5 7
    endloop
  endfacet
  facet normal 1 0 0
    outer loop
      vertex 124 37.5 3
      vertex 124 10 7
      vertex 124 10 3
    endloop
  endfacet
  facet normal 0 1 -0
    outer loop
      vertex 124 37.5 3
      vertex 78 37.5 7
      vertex 124 37.5 7
    endloop
  endfacet
  facet normal 0 1 0
    outer loop
      vertex 78 37.5 7
      vertex 124 37.5 3
      vertex 78 37.5 3
    endloop
  endfacet
  facet normal 0 -1 0
    outer loop
      vertex 78 10 3
      vertex 124 10 7
      vertex 78 10 7
    endloop
  endfacet
  facet normal 0 -1 -0
    outer loop
      vertex 124 10 7
      vertex 78 10 3
      vertex 124 10 3
    endloop
  endfacet
  facet normal 1 -0 0
    outer loop
      vertex 79 11 7
      vertex 79 36.5 3
      vertex 79 36.5 7
    endloop
  endfacet
  facet normal 1 0 0
    outer loop
      vertex 79 36.5 3
      vertex 79 11 7
      vertex 79 11 3
    endloop
  endfacet
  facet normal -1 0 0
    outer loop
      vertex 123 11 3
      vertex 123 36.5 7
      vertex 123 36.5 3
    endloop
  endfacet
  facet normal -1 -0 0
    outer loop
      vertex 123 36.5 7
      vertex 123 11 3
      vertex 123 11 7
    endloop
  endfacet
  facet normal 0 -1 0
    outer loop
      vertex 79 36.5 3
      vertex 123 36.5 7
      vertex 79 36.5 7
    endloop
  endfacet
  facet normal 0 -1 -0
    outer loop
      vertex 123 36.5 7
      vertex 79 36.5 3
      vertex 123 36.5 3
    endloop
  endfacet
  facet normal 0 1 -0
    outer loop
      vertex 123 11 3
      vertex 79 11 7
      vertex 123 11 7
    endloop
  endfacet
  facet normal 0 1 0
    outer loop
      vertex 79 11 7
      vertex 123 11 3
      vertex 79 11 3
    endloop
  endfacet
  facet normal -1 0 0
    outer loop
      vertex 132 10 3
      vertex 132 53.75 7
      vertex 132 53.75 3
    endloop
  endfacet
  facet normal -1 -0 0
    outer loop
      vertex 132 53.75 7
      vertex 132 10 3
      vertex 132 10 7
    endloop
  endfacet
  facet normal 0 0 1
    outer loop
      vertex 158 53.75 7
      vertex 157 52.75 7
      vertex 158 10 7
    endloop
  endfacet
  facet normal 0 0 1
    outer loop
      vertex 158 53.75 7
      vertex 133 52.75 7
      vertex 157 52.75 7
    endloop
  endfacet
  facet normal 0 0 1
    outer loop
      vertex 133 52.75 7
      vertex 132 53.75 7
      vertex 133 11 7
    endloop
  endfacet
  facet normal -0 0 1
    outer loop
      vertex 132 53.75 7
      vertex 133 52.75 7
      vertex 158 53.75 7
    endloop
  endfacet
  facet normal -0 0 1
    outer loop
      vertex 157 11 7
      vertex 158 10 7
      vertex 157 52.75 7
    endloop
  endfacet
  facet normal -0 0 1
    outer loop
      vertex 133 11 7
      vertex 158 10 7
      vertex 157 11 7
    endloop
  endfacet
  facet normal 0 0 1
    outer loop
      vertex 133 11 7
      vertex 132 10 7
      vertex 158 10 7
    endloop
  endfacet
  facet normal 0 0 1
    outer loop
      vertex 132 10 7
      vertex 133 11 7
      vertex 132 53.75 7
    endloop
  endfacet
  facet normal 1 -0 0
    outer loop
      vertex 158 10 7
      vertex 158 53.75 3
      vertex 158 53.75 7
    endloop
  endfacet
  facet normal 1 0 0
    outer loop
      vertex 158 53.75 3
      vertex 158 10 7
      vertex 158 10 3
    endloop
  endfacet
  facet normal 0 1 -0
    outer loop
      vertex 158 53.75 3
      vertex 132 53.75 7
      vertex 158 53.75 7
    endloop
  endfacet
  facet normal 0 1 0
    outer loop
      vertex 132 53.75 7
      vertex 158 53.75 3
      vertex 132 53.75 3
    endloop
  endfacet
  facet normal 0 -1 0
    outer loop
      vertex 132 10 3
      vertex 158 10 7
      vertex 132 10 7
    endloop
  endfacet
  facet normal 0 -1 -0
    outer loop
      vertex 158 10 7
      vertex 132 10 3
      vertex 158 10 3
    endloop
  endfacet
  facet normal 1 -0 0
    outer loop
      vertex 133 11 7
      vertex 133 52.75 3
      vertex 133 52.75 7
    endloop
  endfacet
  facet normal 1 0 0
    outer loop
      vertex 133 52.75 3
      vertex 133 11 7
      vertex 133 11 3
    endloop
  endfacet
  facet normal -1 0 0
    outer loop
      vertex 157 11 3
      vertex 157 52.75 7
      vertex 157 52.75 3
    endloop
  endfacet
  facet normal -1 -0 0
    outer loop
      vertex 157 52.75 7
      vertex 157 11 3
      vertex 157 11 7
    endloop
  endfacet
  facet normal 0 1 -0
    outer loop
      vertex 157 11 3
      vertex 133 11 7
      vertex 157 11 7
    endloop
  endfacet
  facet normal 0 1 0
    outer loop
      vertex 133 11 7
      vertex 157 11 3
      vertex 133 11 3
    endloop
  endfacet
  facet normal 0 -1 0
    outer loop
      vertex 133 52.75 3
      vertex 157 52.75 7
      vertex 133 52.75 7
    endloop
  endfacet
  facet normal 0 -1 -0
    outer loop
      vertex 157 52.75 7
      vertex 133 52.75 3
      vertex 157 52.75 3
    endloop
  endfacet
  facet normal -1 0 0
    outer loop
      vertex 0 0 0
      vertex 0 90 3
      vertex 0 90 0
    endloop
  endfacet
  facet normal -1 -0 0
    outer loop
      vertex 0 90 3
      vertex 0 0 0
      vertex 0 0 3
    endloop
  endfacet
  facet normal 1 -0 0
    outer loop
      vertex 175 0 3
      vertex 175 90 0
      vertex 175 90 3
    endloop
  endfacet
  facet normal 1 0 0
    outer loop
      vertex 175 90 0
      vertex 175 0 3
      vertex 175 0 0
    endloop
  endfacet
  facet normal 0 -1 0
    outer loop
      vertex 0 0 0
      vertex 175 0 3
      vertex 0 0 3
    endloop
  endfacet
  facet normal 0 -1 -0
    outer loop
      vertex 175 0 3
      vertex 0 0 0
      vertex 175 0 0
    endloop
  endfacet
  facet normal 0 1 -0
    outer loop
      vertex 175 90 0
      vertex 0 90 3
      vertex 175 90 3
    endloop
  endfacet
  facet normal 0 1 0
    outer loop
      vertex 0 90 3
      vertex 175 90 0
      vertex 0 90 0
    endloop
  endfacet
  facet normal 1 -0 0
    outer loop
      vertex 20 75 3
      vertex 20 81.5 0
      vertex 20 81.5 3
    endloop
  endfacet
  facet normal 1 0 0
    outer loop
      vertex 20 81.5 0
      vertex 20 75 3
      vertex 20 75 0
    endloop
  endfacet
  facet normal -1 0 0
    outer loop
      vertex 32.25 75 0
      vertex 32.25 81.5 3
      vertex 32.25 81.5 0
    endloop
  endfacet
  facet normal -1 -0 0
    outer loop
      vertex 32.25 81.5 3
      vertex 32.25 75 0
      vertex 32.25 75 3
    endloop
  endfacet
  facet normal 0 -1 0
    outer loop
      vertex 20 81.5 0
      vertex 32.25 81.5 3
      vertex 20 81.5 3
    endloop
  endfacet
  facet normal 0 -1 -0
    outer loop
      vertex 32.25 81.5 3
      vertex 20 81.5 0
      vertex 32.25 81.5 0
    endloop
  endfacet
  facet normal 0 1 -0
    outer loop
      vertex 32.25 75 0
      vertex 20 75 3
      vertex 32.25 75 3
    endloop
  endfacet
  facet normal 0 1 0
    outer loop
      vertex 20 75 3
      vertex 32.25 75 0
      vertex 20 75 0
    endloop
  endfacet
  facet normal 1 -0 0
    outer loop
      vertex 68 64 3
      vertex 68 76.25 0
      vertex 68 76.25 3
    endloop
  endfacet
  facet normal 1 0 0
    outer loop
      vertex 68 76.25 0
      vertex 68 64 3
      vertex 68 64 0
    endloop
  endfacet
  facet normal -1 0 0
    outer loop
      vertex 75.5 64 0
      vertex 75.5 76.25 3
      vertex 75.5 76.25 0
    endloop
  endfacet
  facet normal -1 -0 0
    outer loop
      vertex 75.5 76.25 3
      vertex 75.5 64 0
      vertex 75.5 64 3
    endloop
  endfacet
  facet normal 0 -1 0
    outer loop
      vertex 68 76.25 0
      vertex 75.5 76.25 3
      vertex 68 76.25 3
    endloop
  endfacet
  facet normal 0 -1 -0
    outer loop
      vertex 75.5 76.25 3
      vertex 68 76.25 0
      vertex 75.5 76.25 0
    endloop
  endfacet
  facet normal 0 1 -0
    outer loop
      vertex 75.5 64 0
      vertex 68 64 3
      vertex 75.5 64 3
    endloop
  endfacet
  facet normal 0 1 0
    outer loop
      vertex 68 64 3
      vertex 75.5 64 0
      vertex 68 64 0
    endloop
  endfacet
  facet normal 1 0 0
    outer loop
      vertex 140.5 80.5 7
      vertex 140.5 80 7
      vertex 140.5 80.5 3
    endloop
  endfacet
  facet normal 1 -0 0
    outer loop
      vertex 140.5 80.5 3
      vertex 140.5 86.5 0
      vertex 140.5 86.5 3
    endloop
  endfacet
  facet normal 1 0 0
    outer loop
      vertex 140.5 80.5 3
      vertex 140.5 80 0
      vertex 140.5 86.5 0
    endloop
  endfacet
  facet normal 1 0 0
    outer loop
      vertex 140.5 80 0
      vertex 140.5 80.5 3
      vertex 140.5 80 7
    endloop
  endfacet
  facet normal -1 0 0
    outer loop
      vertex 152.75 86.5 0
      vertex 152.75 80.5 3
      vertex 152.75 86.5 3
    endloop
  endfacet
  facet normal -1 0 0
    outer loop
      vertex 152.75 80 0
      vertex 152.75 80.5 3
      vertex 152.75 86.5 0
    endloop
  endfacet
  facet normal -1 0 0
    outer loop
      vertex 152.75 80 7
      vertex 152.75 80.5 3
      vertex 152.75 80 0
    endloop
  endfacet
  facet normal -1 0 0
    outer loop
      vertex 152.75 80.5 3
      vertex 152.75 80 7
      vertex 152.75 80.5 7
    endloop
  endfacet
  facet normal 0 1 -0
    outer loop
      vertex 152.75 80 0
      vertex 140.5 80 7
      vertex 152.75 80 7
    endloop
  endfacet
  facet normal 0 1 0
    outer loop
      vertex 140.5 80 7
      vertex 152.75 80 0
      vertex 140.5 80 0
    endloop
  endfacet
  facet normal 0 -1 0
    outer loop
      vertex 140.5 86.5 0
      vertex 152.75 86.5 3
      vertex 140.5 86.5 3
    endloop
  endfacet
  facet normal 0 -1 -0
    outer loop
      vertex 152.75 86.5 3
      vertex 140.5 86.5 0
      vertex 152.75 86.5 0
    endloop
  endfacet
  facet normal 1 -0 0
    outer loop
      vertex 32.5 12.5 3
      vertex 32.5 24.75 0
      vertex 32.5 24.75 3
    endloop
  endfacet
  facet normal 1 0 0
    outer loop
      vertex 32.5 24.75 0
      vertex 32.5 12.5 3
      vertex 32.5 12.5 0
    endloop
  endfacet
  facet normal -1 0 0
    outer loop
      vertex 40 12.5 0
      vertex 40 24.75 3
      vertex 40 24.75 0
    endloop
  endfacet
  facet normal -1 -0 0
    outer loop
      vertex 40 24.75 3
      vertex 40 12.5 0
      vertex 40 12.5 3
    endloop
  endfacet
  facet normal 0 1 -0
    outer loop
      vertex 40 12.5 0
      vertex 32.5 12.5 3
      vertex 40 12.5 3
    endloop
  endfacet
  facet normal 0 1 0
    outer loop
      vertex 32.5 12.5 3
      vertex 40 12.5 0
      vertex 32.5 12.5 0
    endloop
  endfacet
  facet normal 0 -1 0
    outer loop
      vertex 32.5 24.75 0
      vertex 40 24.75 3
      vertex 32.5 24.75 3
    endloop
  endfacet
  facet normal 0 -1 -0
    outer loop
      vertex 40 24.75 3
      vertex 32.5 24.75 0
      vertex 40 24.75 0
    endloop
  endfacet
  facet normal -1 0 0
    outer loop
      vertex 11.5 12.5 0
      vertex 11.5 24.75 3
      vertex 11.5 24.75 0
    endloop
  endfacet
  facet normal -1 -0 0
    outer loop
      vertex 11.5 24.75 3
      vertex 11.5 12.5 0
      vertex 11.5 12.5 3
    endloop
  endfacet
  facet normal 0 1 -0
    outer loop
      vertex 11.5 12.5 0
      vertex 4 12.5 3
      vertex 11.5 12.5 3
    endloop
  endfacet
  facet normal 0 1 0
    outer loop
      vertex 4 12.5 3
      vertex 11.5 12.5 0
      vertex 4 12.5 0
    endloop
  endfacet
  facet normal 0 -1 0
    outer loop
      vertex 4 24.75 0
      vertex 11.5 24.75 3
      vertex 4 24.75 3
    endloop
  endfacet
  facet normal 0 -1 -0
    outer loop
      vertex 11.5 24.75 3
      vertex 4 24.75 0
      vertex 11.5 24.75 0
    endloop
  endfacet
  facet normal 1 -0 0
    outer loop
      vertex 51.5 24 3
      vertex 51.5 30.5 0
      vertex 51.5 30.5 3
    endloop
  endfacet
  facet normal 1 0 0
    outer loop
      vertex 51.5 30.5 0
      vertex 51.5 24 3
      vertex 51.5 24 0
    endloop
  endfacet
  facet normal -1 0 0
    outer loop
      vertex 63.75 24 0
      vertex 63.75 30.5 3
      vertex 63.75 30.5 0
    endloop
  endfacet
  facet normal -1 -0 0
    outer loop
      vertex 63.75 30.5 3
      vertex 63.75 24 0
      vertex 63.75 24 3
    endloop
  endfacet
  facet normal 0 1 -0
    outer loop
      vertex 63.75 24 0
      vertex 51.5 24 3
      vertex 63.75 24 3
    endloop
  endfacet
  facet normal 0 1 0
    outer loop
      vertex 51.5 24 3
      vertex 63.75 24 0
      vertex 51.5 24 0
    endloop
  endfacet
  facet normal 0 -1 0
    outer loop
      vertex 51.5 30.5 0
      vertex 63.75 30.5 3
      vertex 51.5 30.5 3
    endloop
  endfacet
  facet normal 0 -1 -0
    outer loop
      vertex 63.75 30.5 3
      vertex 51.5 30.5 0
      vertex 63.75 30.5 0
    endloop
  endfacet
  facet normal 1 -0 0
    outer loop
      vertex 82.5 39.5 3
      vertex 82.5 46 0
      vertex 82.5 46 3
    endloop
  endfacet
  facet normal 1 0 0
    outer loop
      vertex 82.5 46 0
      vertex 82.5 39.5 3
      vertex 82.5 39.5 0
    endloop
  endfacet
  facet normal -1 0 0
    outer loop
      vertex 94.75 39.5 0
      vertex 94.75 46 3
      vertex 94.75 46 0
    endloop
  endfacet
  facet normal -1 -0 0
    outer loop
      vertex 94.75 46 3
      vertex 94.75 39.5 0
      vertex 94.75 39.5 3
    endloop
  endfacet
  facet normal 0 1 -0
    outer loop
      vertex 94.75 39.5 0
      vertex 82.5 39.5 3
      vertex 94.75 39.5 3
    endloop
  endfacet
  facet normal 0 1 0
    outer loop
      vertex 82.5 39.5 3
      vertex 94.75 39.5 0
      vertex 82.5 39.5 0
    endloop
  endfacet
  facet normal 0 -1 0
    outer loop
      vertex 82.5 46 0
      vertex 94.75 46 3
      vertex 82.5 46 3
    endloop
  endfacet
  facet normal 0 -1 -0
    outer loop
      vertex 94.75 46 3
      vertex 82.5 46 0
      vertex 94.75 46 0
    endloop
  endfacet
  facet normal 1 -0 0
    outer loop
      vertex 107.5 3 3
      vertex 107.5 9.5 0
      vertex 107.5 9.5 3
    endloop
  endfacet
  facet normal 1 0 0
    outer loop
      vertex 107.5 9.5 0
      vertex 107.5 3 3
      vertex 107.5 3 0
    endloop
  endfacet
  facet normal -1 0 0
    outer loop
      vertex 119.75 3 0
      vertex 119.75 9.5 3
      vertex 119.75 9.5 0
    endloop
  endfacet
  facet normal -1 -0 0
    outer loop
      vertex 119.75 9.5 3
      vertex 119.75 3 0
      vertex 119.75 3 3
    endloop
  endfacet
  facet normal 0 -1 0
    outer loop
      vertex 107.5 9.5 0
      vertex 119.75 9.5 3
      vertex 107.5 9.5 3
    endloop
  endfacet
  facet normal 0 -1 -0
    outer loop
      vertex 119.75 9.5 3
      vertex 107.5 9.5 0
      vertex 119.75 9.5 0
    endloop
  endfacet
  facet normal 0 1 -0
    outer loop
      vertex 119.75 3 0
      vertex 107.5 3 3
      vertex 119.75 3 3
    endloop
  endfacet
  facet normal 0 1 0
    outer loop
      vertex 107.5 3 3
      vertex 119.75 3 0
      vertex 107.5 3 0
    endloop
  endfacet
  facet normal 1 -0 0
    outer loop
      vertex 82.5 3 3
      vertex 82.5 9.5 0
      vertex 82.5 9.5 3
    endloop
  endfacet
  facet normal 1 0 0
    outer loop
      vertex 82.5 9.5 0
      vertex 82.5 3 3
      vertex 82.5 3 0
    endloop
  endfacet
  facet normal -1 0 0
    outer loop
      vertex 94.75 3 0
      vertex 94.75 9.5 3
      vertex 94.75 9.5 0
    endloop
  endfacet
  facet normal -1 -0 0
    outer loop
      vertex 94.75 9.5 3
      vertex 94.75 3 0
      vertex 94.75 3 3
    endloop
  endfacet
  facet normal 0 1 -0
    outer loop
      vertex 94.75 3 0
      vertex 82.5 3 3
      vertex 94.75 3 3
    endloop
  endfacet
  facet normal 0 1 0
    outer loop
      vertex 82.5 3 3
      vertex 94.75 3 0
      vertex 82.5 3 0
    endloop
  endfacet
  facet normal 0 -1 0
    outer loop
      vertex 82.5 9.5 0
      vertex 94.75 9.5 3
      vertex 82.5 9.5 3
    endloop
  endfacet
  facet normal 0 -1 -0
    outer loop
      vertex 94.75 9.5 3
      vertex 82.5 9.5 0
      vertex 94.75 9.5 0
    endloop
  endfacet
  facet normal 1 -0 0
    outer loop
      vertex 138.5 3 3
      vertex 138.5 9.5 0
      vertex 138.5 9.5 3
    endloop
  endfacet
  facet normal 1 0 0
    outer loop
      vertex 138.5 9.5 0
      vertex 138.5 3 3
      vertex 138.5 3 0
    endloop
  endfacet
  facet normal -1 0 0
    outer loop
      vertex 150.75 3 0
      vertex 150.75 9.5 3
      vertex 150.75 9.5 0
    endloop
  endfacet
  facet normal -1 -0 0
    outer loop
      vertex 150.75 9.5 3
      vertex 150.75 3 0
      vertex 150.75 3 3
    endloop
  endfacet
  facet normal 0 1 -0
    outer loop
      vertex 150.75 3 0
      vertex 138.5 3 3
      vertex 150.75 3 3
    endloop
  endfacet
  facet normal 0 1 0
    outer loop
      vertex 138.5 3 3
      vertex 150.75 3 0
      vertex 138.5 3 0
    endloop
  endfacet
  facet normal 0 -1 0
    outer loop
      vertex 138.5 9.5 0
      vertex 150.75 9.5 3
      vertex 138.5 9.5 3
    endloop
  endfacet
  facet normal 0 -1 -0
    outer loop
      vertex 150.75 9.5 3
      vertex 138.5 9.5 0
      vertex 150.75 9.5 0
    endloop
  endfacet
  facet normal 1 -0 0
    outer loop
      vertex 2 2 3
      vertex 2 8.125 0
      vertex 2 8.125 3
    endloop
  endfacet
  facet normal 1 0 0
    outer loop
      vertex 2 8.125 0
      vertex 2 2 3
      vertex 2 2 0
    endloop
  endfacet
  facet normal -1 0 0
    outer loop
      vertex 8.125 2 0
      vertex 8.125 8.125 3
      vertex 8.125 8.125 0
    endloop
  endfacet
  facet normal -1 -0 0
    outer loop
      vertex 8.125 8.125 3
      vertex 8.125 2 0
      vertex 8.125 2 3
    endloop
  endfacet
  facet normal 0 -1 0
    outer loop
      vertex 2 8.125 0
      vertex 8.125 8.125 3
      vertex 2 8.125 3
    endloop
  endfacet
  facet normal 0 -1 -0
    outer loop
      vertex 8.125 8.125 3
      vertex 2 8.125 0
      vertex 8.125 8.125 0
    endloop
  endfacet
  facet normal 0 1 -0
    outer loop
      vertex 8.125 2 0
      vertex 2 2 3
      vertex 8.125 2 3
    endloop
  endfacet
  facet normal 0 1 0
    outer loop
      vertex 2 2 3
      vertex 8.125 2 0
      vertex 2 2 0
    endloop
  endfacet
  facet normal 1 -0 0
    outer loop
      vertex 167 2 3
      vertex 167 8.125 0
      vertex 167 8.125 3
    endloop
  endfacet
  facet normal 1 0 0
    outer loop
      vertex 167 8.125 0
      vertex 167 2 3
      vertex 167 2 0
    endloop
  endfacet
  facet normal -1 0 0
    outer loop
      vertex 173.125 2 0
      vertex 173.125 8.125 3
      vertex 173.125 8.125 0
    endloop
  endfacet
  facet normal -1 -0 0
    outer loop
      vertex 173.125 8.125 3
      vertex 173.125 2 0
      vertex 173.125 2 3
    endloop
  endfacet
  facet normal 0 -1 0
    outer loop
      vertex 167 8.125 0
      vertex 173.125 8.125 3
      vertex 167 8.125 3
    endloop
  endfacet
  facet normal 0 -1 -0
    outer loop
      vertex 173.125 8.125 3
      vertex 167 8.125 0
      vertex 173.125 8.125 0
    endloop
  endfacet
  facet normal 0 1 -0
    outer loop
      vertex 173.125 2 0
      vertex 167 2 3
      vertex 173.125 2 3
    endloop
  endfacet
  facet normal 0 1 0
    outer loop
      vertex 167 2 3
      vertex 173.125 2 0
      vertex 167 2 0
    endloop
  endfacet
  facet normal 1 -0 0
    outer loop
      vertex 2 82 3
      vertex 2 88.125 0
      vertex 2 88.125 3
    endloop
  endfacet
  facet normal 1 0 0
    outer loop
      vertex 2 88.125 0
      vertex 2 82 3
      vertex 2 82 0
    endloop
  endfacet
  facet normal -1 0 0
    outer loop
      vertex 8.125 82 0
      vertex 8.125 88.125 3
      vertex 8.125 88.125 0
    endloop
  endfacet
  facet normal -1 -0 0
    outer loop
      vertex 8.125 88.125 3
      vertex 8.125 82 0
      vertex 8.125 82 3
    endloop
  endfacet
  facet normal 0 1 -0
    outer loop
      vertex 8.125 82 0
      vertex 2 82 3
      vertex 8.125 82 3
    endloop
  endfacet
  facet normal 0 1 0
    outer loop
      vertex 2 82 3
      vertex 8.125 82 0
      vertex 2 82 0
    endloop
  endfacet
  facet normal 0 -1 0
    outer loop
      vertex 2 88.125 0
      vertex 8.125 88.125 3
      vertex 2 88.125 3
    endloop
  endfacet
  facet normal 0 -1 -0
    outer loop
      vertex 8.125 88.125 3
      vertex 2 88.125 0
      vertex 8.125 88.125 0
    endloop
  endfacet
  facet normal 1 -0 0
    outer loop
      vertex 167 82 3
      vertex 167 88.125 0
      vertex 167 88.125 3
    endloop
  endfacet
  facet normal 1 0 0
    outer loop
      vertex 167 88.125 0
      vertex 167 82 3
      vertex 167 82 0
    endloop
  endfacet
  facet normal -1 0 0
    outer loop
      vertex 173.125 82 0
      vertex 173.125 88.125 3
      vertex 173.125 88.125 0
    endloop
  endfacet
  facet normal -1 -0 0
    outer loop
      vertex 173.125 88.125 3
      vertex 173.125 82 0
      vertex 173.125 82 3
    endloop
  endfacet
  facet normal 0 1 -0
    outer loop
      vertex 173.125 82 0
      vertex 167 82 3
      vertex 173.125 82 3
    endloop
  endfacet
  facet normal 0 1 0
    outer loop
      vertex 167 82 3
      vertex 173.125 82 0
      vertex 167 82 0
    endloop
  endfacet
  facet normal 0 -1 0
    outer loop
      vertex 167 88.125 0
      vertex 173.125 88.125 3
      vertex 167 88.125 3
    endloop
  endfacet
  facet normal 0 -1 -0
    outer loop
      vertex 173.125 88.125 3
      vertex 167 88.125 0
      vertex 173.125 88.125 0
    endloop
  endfacet
endsolid OpenSCAD_Model
